HIERARCHY
ROOT pelvis
{
  OFFSET 0 100 0
  CHANNELS 6 Xposition Yposition Zposition Zrotation Xrotation Yrotation
  JOINT pelvis_right_femur
  {
    OFFSET -10.78128 -3.44521 -0.5502486
    CHANNELS 3 Zrotation Xrotation Yrotation
    JOINT right_femur_tibia
    {
      OFFSET -0.8047443 -44.0398 -0.1307829
      CHANNELS 3 Zrotation Xrotation Yrotation
      JOINT right_tibia_foot
      {
        OFFSET 3.006224 -47.83518 -5
        CHANNELS 3 Zrotation Xrotation Yrotation
        End Site
        {
          OFFSET 0 -5 15
        }
      }
    }
  }
  JOINT pelvis_left_femur
  {
    OFFSET 10.78128 -3.44521 -0.5502486
    CHANNELS 3 Zrotation Xrotation Yrotation
    JOINT left_femur_tibia
    {
      OFFSET 0.8047443 -44.0398 -0.1307829
      CHANNELS 3 Zrotation Xrotation Yrotation
      JOINT left_tibia_foot
      {
        OFFSET -4.370144 -48.10324 -4.275266
        CHANNELS 3 Zrotation Xrotation Yrotation
        End Site
        {
          OFFSET 0 -5 15
        }
      }
    }
  }
  JOINT pelvis_spine1
  {
    OFFSET 0 6.468898 -3.129235
    CHANNELS 3 Zrotation Xrotation Yrotation
    JOINT spine1
    {
      OFFSET 0 23.15396 4.99043
      CHANNELS 3 Zrotation Xrotation Yrotation
      JOINT spine2
      {
        OFFSET 0 20.79997 -5.064912
        CHANNELS 3 Zrotation Xrotation Yrotation
        JOINT neck
        {
          OFFSET 0 14.38658 9.616178
          CHANNELS 3 Zrotation Xrotation Yrotation
          End Site
          {
            OFFSET 0 20 0
          }
        }
      }
      JOINT right_manubrium
      {
        OFFSET -5.722621 16.35077 3.967754
        CHANNELS 3 Zrotation Xrotation Yrotation
        JOINT right_clavicle
        {
          OFFSET -13.16364 1.694482 -4.693211
          CHANNELS 3 Zrotation Xrotation Yrotation
          JOINT right_humerus
          {
            OFFSET -28.5034 -0.3100689 -2.792744
            CHANNELS 3 Zrotation Xrotation Yrotation
            JOINT right_radius
            {
              OFFSET -25.15693 0.02248979 -1.271978
              CHANNELS 3 Zrotation Xrotation Yrotation
              End Site
              {
                OFFSET -15 0 0
              }
            }
          }
        }
      }
      JOINT left_manubrium
      {
        OFFSET 5.722621 16.35077 3.967754
        CHANNELS 3 Zrotation Xrotation Yrotation
        JOINT left_clavicle
        {
          OFFSET 13.16364 1.694482 -4.693211
          CHANNELS 3 Zrotation Xrotation Yrotation
          JOINT left_humerus
          {
            OFFSET 29.39168 -1.063119 -2.237045
            CHANNELS 3 Zrotation Xrotation Yrotation
            JOINT left_radius
            {
              OFFSET 24.59957 -0.9528479 0.9047498
              CHANNELS 3 Zrotation Xrotation Yrotation
              End Site
              {
                OFFSET 15 -0 -0
              }
            }
          }
        }
      }
    }
  }
}
MOTION
Frames: 17
Frame Time: 0.0416666666667
0 103.5113 0 1.748957 -0.6026751 0.09775717 3.887034 -14.71063 11.41893 -0 35.93052 -0 -3.737586 -17.58404 -3.838416 -7.346778 8.805265 -20.57957 -0 4.887986 -0 19.8959 -9.091888 27.20235 -1.154886 -2.05196 6.34392 1.567986 11.24086 -7.012644 2.016621 21.00311 5.419689 2.849126 -25.16201 8.934608 4.701203 -20.46954 11.10745 87.62037 35.90471 -19.03547 -0 0 15.1441 -8.21891 8.416163 4.212617 6.304477 -20.94488 -2.038092 -91.71799 22.07388 21.62655 0 0 -17.65999 14.36368 13.95113 -1.584046
0.4657079 103.4389 1.748563 1.217436 0.5927582 0.143285 4.847609 -18.20189 12.31021 -0 35.64679 -0 -4.130839 -16.91791 -3.99154 -7.102402 9.101092 -20.72315 -0 5.726571 -0 20.07764 -10.2485 27.51173 -1.05212 -1.934722 6.440371 1.509018 11.2904 -6.958164 2.006648 21.02518 5.309304 2.773412 -25.04247 8.802239 4.500261 -20.58195 11.12388 87.59028 35.86267 -18.74142 -0 0 15.18287 -8.487415 8.456739 4.48364 6.262015 -20.9349 -2.03504 -91.44609 21.86434 21.45801 0 0 -17.91412 14.38698 13.69751 -1.68305
0.8404467 103.3183 3.455526 0.988724 0.9478225 0.2175786 4.988325 -19.65973 12.08943 -0 35.55475 -0 -4.234728 -16.56273 -4.074286 -7.135756 9.843606 -21.32099 -0 5.707228 -0 17.7911 -12.55089 27.74453 -1.075941 -1.921207 6.364304 1.527663 11.18647 -6.965151 1.990401 21.03783 5.361844 2.850634 -24.9362 8.747086 4.696438 -20.37825 11.11113 87.42488 35.94478 -18.82478 -0 0 15.12639 -8.388073 8.519812 4.488688 6.263362 -20.91202 -2.077318 -91.56931 22.38826 21.44214 0 0 -18.12153 13.73085 13.81845 -0.8218467
1.133993 103.1995 5.243756 0.5458218 1.613967 0.2940167 5.623064 -22.07128 12.22878 -0 34.89381 -0 -4.676938 -15.82643 -4.124888 -6.887775 10.26968 -21.44246 -0 6.249705 -0 16.66709 -14.12496 27.65799 -1.071901 -1.890989 6.336835 1.529564 11.13628 -6.960161 1.978074 21.05053 5.37304 2.880332 -24.85712 8.691832 4.766491 -20.28299 11.10839 87.32948 35.97667 -18.81849 -0 0 15.09507 -8.39024 8.563728 4.543992 6.252241 -20.89766 -2.101188 -91.58974 22.6404 21.40378 0 0 -18.27473 13.36331 13.83828 -0.355057
1.347656 103.0617 7.154852 0.05695765 2.304375 0.387015 6.297834 -24.65312 12.25265 -0 33.93275 -0 -5.127772 -14.95046 -4.145617 -6.586378 10.76957 -21.49023 -0 6.784151 -0 15.07641 -15.95246 27.29026 -1.101304 -1.884655 6.261228 1.559251 11.05201 -6.975054 1.963108 21.06556 5.421419 2.939902 -24.79485 8.65752 4.91803 -20.11363 11.10254 87.22286 36.01327 -18.91468 -0 0 15.01861 -8.311193 8.605218 4.537723 6.237089 -20.87786 -2.142642 -91.70355 23.05052 21.40425 0 0 -18.39361 12.8417 13.94278 0.3202884
1.495599 102.9043 9.274175 -0.4780236 3.018267 0.5055038 7.09034 -27.31258 12.27449 -0 32.55762 -0 -5.714157 -13.85392 -4.102822 -6.188634 11.19996 -21.2738 -0 7.601217 -0 13.71477 -17.40731 26.59968 -1.131084 -1.874502 6.184766 1.595908 10.9751 -6.992588 1.946762 21.08337 5.463892 2.989838 -24.74439 8.622208 5.048429 -19.95292 11.10228 87.13213 36.02285 -19.00494 -0 0 14.92639 -8.251261 8.639742 4.544239 6.208399 -20.85624 -2.186484 -91.80303 23.41501 21.39857 0 0 -18.48702 12.35246 14.02853 0.9415272
1.588997 102.7272 11.67983 -1.032918 3.748795 0.6640837 7.921253 -29.93813 12.24765 -0 30.85434 -0 -6.350088 -12.58848 -4.008063 -5.738411 11.6608 -20.87938 -0 8.665363 -0 12.17422 -18.67145 25.52217 -1.168813 -1.861608 6.091977 1.646189 10.88949 -7.016606 1.92652 21.10653 5.510555 3.040923 -24.69796 8.582814 5.186304 -19.77124 11.10631 87.04021 36.01263 -19.11047 -0 0 14.80583 -8.192341 8.673035 4.558347 6.16351 -20.82815 -2.239802 -91.9128 23.80862 21.39125 0 0 -18.5691 11.80422 14.11771 1.626416
1.641472 102.5387 14.44902 -1.572054 4.407908 0.8724062 8.713539 -32.20969 12.13106 -0 28.96115 -0 -7.069163 -11.20703 -3.85671 -5.252438 12.132 -20.3113 -0 10.15564 -0 10.49684 -19.5073 24.03896 -1.203061 -1.834114 5.99757 1.702321 10.80599 -7.040553 1.901806 21.13516 5.548765 3.084104 -24.64612 8.52725 5.306106 -19.58688 11.11752 86.94686 35.98048 -19.19464 -0 0 14.66254 -8.169784 8.709834 4.608299 6.099673 -20.79526 -2.29925 -91.99672 24.17945 21.36218 0 0 -18.65462 11.23531 14.17614 2.320212
1.665438 102.3615 17.64661 -2.076511 4.933474 1.135082 9.393081 -33.88844 11.88314 -0 27.06461 -0 -7.858042 -9.810244 -3.666644 -4.744108 12.60057 -19.62004 -0 12.23035 -0 8.534079 -19.82622 22.12608 -1.22988 -1.785532 5.905004 1.760479 10.72448 -7.061348 1.871441 21.17023 5.576243 3.120049 -24.57815 8.447407 5.406264 -19.3984 11.13625 86.84494 35.93367 -19.24535 -0 0 14.49547 -8.198269 8.757612 4.706676 6.015634 -20.7578 -2.365843 -92.04431 24.53008 21.30291 0 0 -18.75968 10.63109 14.19389 3.041664
1.672909 102.2359 21.31305 -2.524908 5.224018 1.440548 9.885233 -34.6754 11.4583 -0 25.39616 -0 -8.730902 -8.548558 -3.459214 -4.219373 12.97042 -18.8446 -0 15.13787 -0 6.301534 -19.44163 19.83972 -1.241961 -1.708159 5.825127 1.812165 10.65073 -7.073018 1.835126 21.21144 5.587513 3.147204 -24.48216 8.334782 5.477123 -19.2141 11.1629 86.72933 35.88154 -19.23937 -0 0 14.31024 -8.302244 8.824791 4.869246 5.912551 -20.71852 -2.437657 -92.03554 24.8383 21.20279 0 0 -18.89852 10.00702 14.15227 3.773381
1.675625 102.2222 25.45492 -2.899348 5.190536 1.757728 10.14107 -34.34424 10.82926 -0 24.13443 -0 -9.680581 -7.602746 -3.262671 -3.681119 13.07053 -18.01409 -0 19.13599 -0 3.88099 -18.21817 17.29933 -1.234187 -1.596853 5.768141 1.847524 10.58809 -7.068998 1.792752 21.25827 5.580587 3.166973 -24.3456 8.183582 5.51399 -19.04139 11.1964 86.59122 35.83696 -19.15473 -0 0 14.11871 -8.503647 8.920952 5.107059 5.794331 -20.68007 -2.511255 -91.95928 25.09309 21.05896 0 0 -19.08115 9.371264 14.0399 4.510596
1.685902 102.3935 30.03585 -3.170212 4.759555 2.033507 10.13104 -32.74185 9.980939 -0 23.32864 -0 -10.67724 -7.150128 -3.09849 -3.141094 12.63577 -17.12961 -0 24.43629 -0 1.475435 -16.09556 14.69644 -1.202349 -1.44897 5.747124 1.853749 10.53972 -7.040755 1.744619 21.30897 5.55548 3.181814 -24.15635 7.991209 5.511267 -18.89339 11.23469 86.41698 35.81346 -18.96145 -0 0 13.94615 -8.827607 9.056168 5.429862 5.669204 -20.64546 -2.578142 -91.80935 25.27945 20.87625 0 0 -19.30908 8.741056 13.84837 5.239101
1.71661 102.817 34.97419 -3.289018 3.909308 2.203171 9.837564 -29.83552 8.902188 -0 22.80518 -0 -11.6412 -7.293117 -2.964764 -2.632199 11.33578 -16.15795 -0 31.05581 -0 -0.6722253 -13.18591 12.24521 -1.1446 -1.265564 5.776139 1.81628 10.50539 -6.978213 1.690927 21.36036 5.516323 3.19606 -23.90402 7.759533 5.463685 -18.7882 11.27476 86.18402 35.82283 -18.62002 -0 0 13.8351 -9.301961 9.240938 5.846671 5.550513 -20.61676 -2.622788 -91.58953 25.38489 20.67072 0 0 -19.57259 8.134049 13.57622 5.944488
1.779182 103.525 40.14934 -3.18933 2.695576 2.213501 9.252211 -25.72892 7.58609 -0 22.15918 -0 -12.44498 -7.974 -2.815404 -2.209464 8.842072 -15.03638 -0 38.64038 -0 -2.33677 -9.824407 10.15238 -1.061567 -1.052084 5.869955 1.719962 10.48005 -6.870048 1.631448 21.40685 5.471936 3.215321 -23.58211 7.495761 5.364331 -18.75037 11.31309 85.85829 35.8711 -18.07781 -0 0 13.84867 -9.958846 9.485486 6.368156 5.457614 -20.59436 -2.620272 -91.31398 25.39627 20.4702 0 0 -19.84887 7.569774 13.22921 6.607764
1.879353 104.4842 45.42168 -2.810808 1.264883 2.052194 8.402677 -20.68069 6.066335 -0 20.88081 -0 -12.95033 -8.915053 -2.55966 -1.920218 4.958081 -13.69484 -0 46.32544 -0 -3.359737 -6.554196 8.613399 -0.9567477 -0.8189504 6.041952 1.551832 10.4517 -6.705052 1.565183 21.43988 5.436314 3.245892 -23.19073 7.212879 5.204226 -18.80936 11.34624 85.39392 35.95424 -17.27091 -0 0 14.06808 -10.83344 9.798292 7.008105 5.41519 -20.57581 -2.536566 -91.00779 25.30142 20.3135 0 0 -20.10322 7.06542 12.82125 7.208094
2.013534 105.5813 50.66425 -2.144041 -0.1778507 1.761162 7.390997 -15.09774 4.473105 -0 18.6279 -0 -13.08368 -9.675319 -2.114587 -1.743089 -0.2186808 -12.08893 -0 52.77305 -0 -3.66603 -3.984895 7.82493 -0.8366872 -0.5816418 6.301203 1.305198 10.40126 -6.474507 1.490567 21.44806 5.427207 3.293255 -22.73954 6.929231 4.972783 -18.99542 11.37127 84.73905 36.05333 -16.13369 -0 0 14.58148 -11.95826 10.18254 7.782517 5.449838 -20.55448 -2.333351 -90.70529 25.09074 20.24655 0 0 -20.29331 6.632984 12.37363 7.724864
2.171065 106.6347 55.79433 -1.27643 -1.452099 1.41625 6.397194 -9.463877 3.04227 -0 15.50331 -0 -12.8915 -9.893839 -1.500071 -1.536179 -6.202243 -10.22636 -0 56.47965 -0 -3.296177 -2.538462 7.946633 -0.7113613 -0.3594622 6.648285 0.9846892 10.30591 -6.175622 1.406429 21.41934 5.461972 3.359824 -22.24962 6.666241 4.661127 -19.33101 11.3861 83.85082 36.13152 -14.62029 -0 0 15.4599 -13.35074 10.6304 8.704143 5.581918 -20.5183 -1.97991 -90.44582 24.76152 20.31474 0 0 -20.37617 6.275092 11.91196 8.143733
